<svg width="25" height="25" viewBox="0 0 25 25" fill="none" xmlns="http://www.w3.org/2000/svg">
<g clip-path="url(#clip0_139_41)">
<path d="M24.9938 25V24.999H25.0001V15.8302C25.0001 11.3448 24.0345 7.88962 18.7907 7.88962C16.2699 7.88962 14.5782 9.27295 13.8876 10.5844H13.8147V8.30837H8.84277V24.999H14.0199V16.7344C14.0199 14.5584 14.4324 12.4542 17.1272 12.4542C19.7824 12.4542 19.822 14.9375 19.822 16.874V25H24.9938Z" fill="#808082"/>
<path d="M0.412598 8.30936H5.59593V25H0.412598V8.30936Z" fill="#808082"/>
<path d="M3.00208 0C1.34479 0 0 1.34479 0 3.00208C0 4.65937 1.34479 6.03229 3.00208 6.03229C4.65937 6.03229 6.00417 4.65937 6.00417 3.00208C6.00312 1.34479 4.65833 0 3.00208 0V0Z" fill="#808082"/>
</g>
<defs>
<clipPath id="clip0_139_41">
<rect width="25" height="25" fill="white"/>
</clipPath>
</defs>
</svg>
