<svg width="25" height="25" viewBox="0 0 25 25" fill="none" xmlns="http://www.w3.org/2000/svg">
<g clip-path="url(#clip0_139_28)">
<path d="M16.5718 12.6271L24.9999 17.9552V7.07397L16.5718 12.6271Z" fill="#808082"/>
<path d="M0 7.07397V17.9552L8.42812 12.6271L0 7.07397Z" fill="#808082"/>
<path d="M23.4375 3.90625H1.5625C0.782813 3.90625 0.164063 4.4875 0.046875 5.23594L12.5 13.4406L24.9531 5.23594C24.8359 4.4875 24.2172 3.90625 23.4375 3.90625Z" fill="#808082"/>
<path d="M15.1404 13.5697L12.9295 15.0259C12.7982 15.1119 12.6498 15.1541 12.4998 15.1541C12.3498 15.1541 12.2014 15.1119 12.0701 15.0259L9.85918 13.5681L0.0498047 19.7728C0.170117 20.515 0.785742 21.0916 1.5623 21.0916H23.4373C24.2139 21.0916 24.8295 20.515 24.9498 19.7728L15.1404 13.5697Z" fill="#808082"/>
</g>
<defs>
<clipPath id="clip0_139_28">
<rect width="25" height="25" fill="white"/>
</clipPath>
</defs>
</svg>
