<svg width="137" height="137" viewBox="0 0 137 137" fill="none" xmlns="http://www.w3.org/2000/svg">
<g filter="url(#filter0_i_230_30)">
<rect x="3.5" y="3.5" width="130" height="130" rx="33.5" fill="#2C2F34" stroke="#A36BC0" stroke-width="7"/>
<path d="M46.3 95V49.025H28.3V42.5H71.725V49.025H53.725V95H46.3ZM85.9111 95.6C82.8111 95.6 79.9111 94.95 77.2111 93.65C74.5111 92.35 72.3111 90.475 70.6111 88.025L74.9611 82.925C76.4111 84.925 78.0361 86.475 79.8361 87.575C81.6861 88.625 83.7111 89.15 85.9111 89.15C91.9111 89.15 94.9111 85.6 94.9111 78.5V49.025H75.9361V42.5H102.336V78.125C102.336 83.975 100.936 88.35 98.1361 91.25C95.3861 94.15 91.3111 95.6 85.9111 95.6Z" fill="#CC80F4"/>
</g>
<defs>
<filter id="filter0_i_230_30" x="0" y="0" width="137" height="141" filterUnits="userSpaceOnUse" color-interpolation-filters="sRGB">
<feFlood flood-opacity="0" result="BackgroundImageFix"/>
<feBlend mode="normal" in="SourceGraphic" in2="BackgroundImageFix" result="shape"/>
<feColorMatrix in="SourceAlpha" type="matrix" values="0 0 0 0 0 0 0 0 0 0 0 0 0 0 0 0 0 0 127 0" result="hardAlpha"/>
<feOffset dy="4"/>
<feGaussianBlur stdDeviation="2"/>
<feComposite in2="hardAlpha" operator="arithmetic" k2="-1" k3="1"/>
<feColorMatrix type="matrix" values="0 0 0 0 0 0 0 0 0 0 0 0 0 0 0 0 0 0 0.25 0"/>
<feBlend mode="normal" in2="shape" result="effect1_innerShadow_230_30"/>
</filter>
</defs>
</svg>
