<svg width="109" height="111" viewBox="0 0 109 111" fill="none" xmlns="http://www.w3.org/2000/svg">
<path d="M54.2066 0C24.274 0 0 25.4243 0 56.7876C0 81.8725 15.5321 103.154 37.0819 110.669C39.7926 111.193 40.782 109.439 40.782 107.933C40.782 106.583 40.7346 103.012 40.7074 98.2753C25.6294 101.704 22.4443 90.6608 22.4443 90.6608C19.9844 84.0996 16.4266 82.3533 16.4266 82.3533C11.5 78.8324 16.7926 78.9031 16.7926 78.9031C22.2342 79.3061 25.094 84.7572 25.094 84.7572C29.9325 93.4323 37.7867 90.9294 40.8769 89.473C41.3648 85.8036 42.7676 83.3007 44.3194 81.8796C32.284 80.4444 19.6252 75.573 19.6252 53.8181C19.6252 47.6176 21.7396 42.5483 25.2092 38.5748C24.6467 37.1396 22.7899 31.3633 25.7378 23.5507C25.7378 23.5507 30.2917 22.0236 40.6465 29.3695C44.97 28.111 49.6052 27.4817 54.2201 27.4605C58.8215 27.4888 63.4635 28.111 67.7938 29.3765C78.1418 22.0306 82.6889 23.5578 82.6889 23.5578C85.6435 31.3774 83.7867 37.1467 83.231 38.5819C86.7075 42.5553 88.8015 47.6247 88.8015 53.8252C88.8015 75.6367 76.1291 80.4373 64.0531 81.8443C65.998 83.5977 67.7328 87.062 67.7328 92.3576C67.7328 99.951 67.665 106.074 67.665 107.933C67.665 109.453 68.6409 111.221 71.3922 110.662C92.9081 103.14 108.427 81.8655 108.427 56.7876C108.427 25.4243 84.1527 0 54.2066 0Z" fill="#C9C5C8"/>
</svg>
