<svg width="110" height="110" viewBox="0 0 110 110" fill="none" xmlns="http://www.w3.org/2000/svg">
<g clip-path="url(#clip0_38_885)">
<path d="M72.9165 55.5593L110 79.003V31.1256L72.9165 55.5593Z" fill="#C9C5C8"/>
<path d="M0 31.1256V79.003L37.0837 55.5593L0 31.1256Z" fill="#C9C5C8"/>
<path d="M103.125 17.1875H6.87505C3.44442 17.1875 0.721924 19.745 0.206299 23.0381L55 59.1388L109.794 23.0381C109.278 19.745 106.556 17.1875 103.125 17.1875Z" fill="#C9C5C8"/>
<path d="M66.619 59.7067L56.8908 66.1142C56.3133 66.4923 55.6602 66.678 55.0002 66.678C54.3402 66.678 53.6871 66.4923 53.1096 66.1142L43.3815 59.6998L0.220215 87.0005C0.74959 90.2661 3.45834 92.803 6.87521 92.803H103.125C106.542 92.803 109.251 90.2661 109.78 87.0005L66.619 59.7067Z" fill="#C9C5C8"/>
</g>
<defs>
<clipPath id="clip0_38_885">
<rect width="110" height="110" fill="white"/>
</clipPath>
</defs>
</svg>
