<svg width="109" height="110" viewBox="0 0 109 110" fill="none" xmlns="http://www.w3.org/2000/svg">
<g clip-path="url(#clip0_38_898)">
<path d="M108.973 110V109.996H109V69.653C109 49.9172 104.79 34.7143 81.9272 34.7143C70.9363 34.7143 63.5606 40.801 60.5495 46.5714H60.2316V36.5568H38.5542V109.996H61.1263V73.6314C61.1263 64.0568 62.9248 54.7985 74.6741 54.7985C86.2508 54.7985 86.4234 65.7251 86.4234 74.2455V110H108.973Z" fill="#C9C5C8"/>
<path d="M1.79858 36.5612H24.3979V110H1.79858V36.5612Z" fill="#C9C5C8"/>
<path d="M13.0891 0C5.86329 0 0 5.91708 0 13.2092C0 20.5013 5.86329 26.5421 13.0891 26.5421C20.3149 26.5421 26.1782 20.5013 26.1782 13.2092C26.1736 5.91708 20.3103 0 13.0891 0V0Z" fill="#C9C5C8"/>
</g>
<defs>
<clipPath id="clip0_38_898">
<rect width="109" height="110" fill="white"/>
</clipPath>
</defs>
</svg>
